<?xml version="1.0" encoding="UTF-8"?>
<svg id="a" data-name="Layer 1" xmlns="http://www.w3.org/2000/svg" viewBox="0 0 1890.5 428">
  <defs>
    <style>
      .b {
        fill: rgba(255, 253, 247, 0.883);
        stroke-width: 0px;
      }
    </style>
  </defs>
  <path class="b" d="M24.19,42.91H.1v-2.57h24.09v2.57Z"/>
  <path class="b" d="M48.28,42.91h-24.09v-2.57h24.09v2.57Z"/>
  <path class="b" d="M72.37,42.91h-24.09v-2.57h24.09v2.57Z"/>
  <path class="b" d="M96.46,42.91h-24.09v-2.57h24.09v2.57Z"/>
  <path class="b" d="M120.55,42.91h-24.09v-2.57h24.09v2.57Z"/>
  <path class="b" d="M139.66,5.98l-12.02,28.72h-2.88l11.96-28.72h2.94Z"/>
  <path class="b" d="M163.71,34.7h-2.9l-12-28.72h2.92l11.98,28.72Z"/>
  <path class="b" d="M187.8,34.7h-2.9l-12-28.72h2.92l11.98,28.72Z"/>
  <path class="b" d="M211.89,34.7h-2.9l-12-28.72h2.92l11.98,28.72Z"/>
  <path class="b" d="M235.98,34.7h-2.9l-12-28.72h2.92l11.98,28.72Z"/>
  <path class="b" d="M260.07,34.7h-2.9l-12-28.72h2.92l11.98,28.72Z"/>
  <path class="b" d="M284.17,34.7h-2.9l-12-28.72h2.92l11.98,28.72Z"/>
  <path class="b" d="M308.26,34.7h-2.9l-12-28.72h2.92l11.98,28.72Z"/>
  <path class="b" d="M332.35,34.7h-2.9l-12-28.72h2.92l11.98,28.72Z"/>
  <path class="b" d="M361.46,42.91h-24.09v-2.57h24.09v2.57Z"/>
  <path class="b" d="M385.55,42.91h-24.09v-2.57h24.09v2.57Z"/>
  <path class="b" d="M409.64,42.91h-24.09v-2.57h24.09v2.57Z"/>
  <path class="b" d="M433.73,42.91h-24.09v-2.57h24.09v2.57Z"/>
  <path class="b" d="M457.82,42.91h-24.09v-2.57h24.09v2.57Z"/>
  <path class="b" d="M481.91,42.91h-24.09v-2.57h24.09v2.57Z"/>
  <path class="b" d="M506,42.91h-24.09v-2.57h24.09v2.57Z"/>
  <path class="b" d="M525.11,5.98l-12.02,28.72h-2.88l11.96-28.72h2.94Z"/>
  <path class="b" d="M549.16,34.7h-2.9l-12-28.72h2.92l11.98,28.72Z"/>
  <path class="b" d="M573.25,34.7h-2.9l-12-28.72h2.92l11.98,28.72Z"/>
  <path class="b" d="M597.34,34.7h-2.9l-12-28.72h2.92l11.98,28.72Z"/>
  <path class="b" d="M621.43,34.7h-2.9l-12-28.72h2.92l11.98,28.72Z"/>
  <path class="b" d="M645.52,34.7h-2.9l-12-28.72h2.92l11.98,28.72Z"/>
  <path class="b" d="M669.61,34.7h-2.9l-12-28.72h2.92l11.98,28.72Z"/>
  <path class="b" d="M693.71,34.7h-2.9l-12-28.72h2.92l11.98,28.72Z"/>
  <path class="b" d="M717.79,34.7h-2.9l-12-28.72h2.92l11.98,28.72Z"/>
  <path class="b" d="M741.89,34.7h-2.9l-12-28.72h2.92l11.98,28.72Z"/>
  <path class="b" d="M765.98,34.7h-2.9l-12-28.72h2.92l11.98,28.72Z"/>
  <path class="b" d="M790.07,34.7h-2.9l-12-28.72h2.92l11.98,28.72Z"/>
  <path class="b" d="M814.16,34.7h-2.9l-12-28.72h2.92l11.98,28.72Z"/>
  <path class="b" d="M843.27,42.91h-24.09v-2.57h24.09v2.57Z"/>
  <path class="b" d="M867.36,42.91h-24.09v-2.57h24.09v2.57Z"/>
  <path class="b" d="M891.45,42.91h-24.09v-2.57h24.09v2.57Z"/>
  <path class="b" d="M915.54,42.91h-24.09v-2.57h24.09v2.57Z"/>
  <path class="b" d="M934.65,5.98l-12.02,28.72h-2.88l11.96-28.72h2.94Z"/>
  <path class="b" d="M958.7,34.7h-2.9l-12-28.72h2.92l11.98,28.72Z"/>
  <path class="b" d="M982.79,34.7h-2.9l-12-28.72h2.92l11.98,28.72Z"/>
  <path class="b" d="M1006.88,34.7h-2.9l-12-28.72h2.92l11.98,28.72Z"/>
  <path class="b" d="M1030.97,34.7h-2.9l-12-28.72h2.92l11.98,28.72Z"/>
  <path class="b" d="M1055.06,34.7h-2.9l-12-28.72h2.92l11.98,28.72Z"/>
  <path class="b" d="M1079.15,34.7h-2.9l-12-28.72h2.92l11.98,28.72Z"/>
  <path class="b" d="M1103.24,34.7h-2.9l-12-28.72h2.92l11.98,28.72Z"/>
  <path class="b" d="M1127.33,34.7h-2.9l-12-28.72h2.92l11.98,28.72Z"/>
  <path class="b" d="M1151.43,34.7h-2.9l-12-28.72h2.92l11.98,28.72Z"/>
  <path class="b" d="M1180.54,42.91h-24.09v-2.57h24.09v2.57Z"/>
  <path class="b" d="M1204.63,42.91h-24.09v-2.57h24.09v2.57Z"/>
  <path class="b" d="M1228.72,42.91h-24.09v-2.57h24.09v2.57Z"/>
  <path class="b" d="M1252.81,42.91h-24.09v-2.57h24.09v2.57Z"/>
  <path class="b" d="M1276.9,42.91h-24.09v-2.57h24.09v2.57Z"/>
  <path class="b" d="M1300.99,42.91h-24.09v-2.57h24.09v2.57Z"/>
  <path class="b" d="M1325.08,42.91h-24.09v-2.57h24.09v2.57Z"/>
  <path class="b" d="M1349.17,42.91h-24.09v-2.57h24.09v2.57Z"/>
  <path class="b" d="M1373.26,42.91h-24.09v-2.57h24.09v2.57Z"/>
  <path class="b" d="M1392.37,5.98l-12.02,28.72h-2.88l11.96-28.72h2.94Z"/>
  <path class="b" d="M1416.42,34.7h-2.9l-12-28.72h2.92l11.98,28.72Z"/>
  <path class="b" d="M1440.51,34.7h-2.9l-12-28.72h2.92l11.98,28.72Z"/>
  <path class="b" d="M1464.6,34.7h-2.9l-12-28.72h2.92l11.98,28.72Z"/>
  <path class="b" d="M1488.69,34.7h-2.9l-12-28.72h2.92l11.98,28.72Z"/>
  <path class="b" d="M1512.78,34.7h-2.9l-12-28.72h2.92l11.98,28.72Z"/>
  <path class="b" d="M1536.88,34.7h-2.9l-12-28.72h2.92l11.98,28.72Z"/>
  <path class="b" d="M1560.97,34.7h-2.9l-12-28.72h2.92l11.98,28.72Z"/>
  <path class="b" d="M1585.06,34.7h-2.9l-12-28.72h2.92l11.98,28.72Z"/>
  <path class="b" d="M1609.15,34.7h-2.9l-12-28.72h2.92l11.98,28.72Z"/>
  <path class="b" d="M1633.24,34.7h-2.9l-12-28.72h2.92l11.98,28.72Z"/>
  <path class="b" d="M1662.35,42.91h-24.09v-2.57h24.09v2.57Z"/>
  <path class="b" d="M1686.44,42.91h-24.09v-2.57h24.09v2.57Z"/>
  <path class="b" d="M1710.53,42.91h-24.09v-2.57h24.09v2.57Z"/>
  <path class="b" d="M1734.62,42.91h-24.09v-2.57h24.09v2.57Z"/>
  <path class="b" d="M1758.71,42.91h-24.09v-2.57h24.09v2.57Z"/>
  <path class="b" d="M1782.8,42.91h-24.09v-2.57h24.09v2.57Z"/>
  <path class="b" d="M1806.89,42.91h-24.09v-2.57h24.09v2.57Z"/>
  <path class="b" d="M1830.98,42.91h-24.09v-2.57h24.09v2.57Z"/>
  <path class="b" d="M1855.07,42.91h-24.09v-2.57h24.09v2.57Z"/>
  <path class="b" d="M1879.16,42.91h-24.09v-2.57h24.09v2.57Z"/>
  <path class="b" d="M1903.25,42.91h-24.09v-2.57h24.09v2.57Z"/>
  <path class="b" d="M24.19,91.09H.1v-2.57h24.09v2.57Z"/>
  <path class="b" d="M48.28,91.09h-24.09v-2.57h24.09v2.57Z"/>
  <path class="b" d="M72.37,91.09h-24.09v-2.57h24.09v2.57Z"/>
  <path class="b" d="M96.46,91.09h-24.09v-2.57h24.09v2.57Z"/>
  <path class="b" d="M115.57,54.16l-12.02,28.72h-2.88l11.96-28.72h2.94Z"/>
  <path class="b" d="M139.62,82.87h-2.9l-12-28.72h2.92l11.98,28.72Z"/>
  <path class="b" d="M163.71,82.87h-2.9l-12-28.72h2.92l11.98,28.72Z"/>
  <path class="b" d="M187.8,82.87h-2.9l-12-28.72h2.92l11.98,28.72Z"/>
  <path class="b" d="M211.93,54.16l-12.02,28.72h-2.88l11.96-28.72h2.94Z"/>
  <path class="b" d="M236.02,54.16l-12.02,28.72h-2.88l11.96-28.72h2.94Z"/>
  <path class="b" d="M260.11,54.16l-12.02,28.72h-2.88l11.96-28.72h2.94Z"/>
  <path class="b" d="M284.2,54.16l-12.02,28.72h-2.88l11.96-28.72h2.94Z"/>
  <path class="b" d="M308.29,54.16l-12.02,28.72h-2.88l11.96-28.72h2.94Z"/>
  <path class="b" d="M332.35,82.87h-2.9l-12-28.72h2.92l11.98,28.72Z"/>
  <path class="b" d="M356.44,82.87h-2.9l-12-28.72h2.92l11.98,28.72Z"/>
  <path class="b" d="M380.53,82.87h-2.9l-12-28.72h2.92l11.98,28.72Z"/>
  <path class="b" d="M409.64,91.09h-24.09v-2.57h24.09v2.57Z"/>
  <path class="b" d="M433.73,91.09h-24.09v-2.57h24.09v2.57Z"/>
  <path class="b" d="M457.82,91.09h-24.09v-2.57h24.09v2.57Z"/>
  <path class="b" d="M481.91,91.09h-24.09v-2.57h24.09v2.57Z"/>
  <path class="b" d="M501.02,54.16l-12.02,28.72h-2.88l11.96-28.72h2.94Z"/>
  <path class="b" d="M525.07,82.87h-2.9l-12-28.72h2.92l11.98,28.72Z"/>
  <path class="b" d="M549.16,82.87h-2.9l-12-28.72h2.92l11.98,28.72Z"/>
  <path class="b" d="M573.25,82.87h-2.9l-12-28.72h2.92l11.98,28.72Z"/>
  <path class="b" d="M597.38,54.16l-12.02,28.72h-2.88l11.96-28.72h2.94Z"/>
  <path class="b" d="M621.47,54.16l-12.02,28.72h-2.88l11.96-28.72h2.94Z"/>
  <path class="b" d="M645.56,54.16l-12.02,28.72h-2.88l11.96-28.72h2.94Z"/>
  <path class="b" d="M669.65,54.16l-12.02,28.72h-2.88l11.96-28.72h2.94Z"/>
  <path class="b" d="M693.74,54.16l-12.02,28.72h-2.88l11.96-28.72h2.94Z"/>
  <path class="b" d="M717.83,54.16l-12.02,28.72h-2.88l11.96-28.72h2.94Z"/>
  <path class="b" d="M741.92,54.16l-12.02,28.72h-2.88l11.96-28.72h2.94Z"/>
  <path class="b" d="M766.02,54.16l-12.02,28.72h-2.88l11.96-28.72h2.94Z"/>
  <path class="b" d="M790.11,54.16l-12.02,28.72h-2.88l11.96-28.72h2.94Z"/>
  <path class="b" d="M814.2,54.16l-12.02,28.72h-2.88l11.96-28.72h2.94Z"/>
  <path class="b" d="M843.27,91.09h-24.09v-2.57h24.09v2.57Z"/>
  <path class="b" d="M867.36,91.09h-24.09v-2.57h24.09v2.57Z"/>
  <path class="b" d="M891.45,91.09h-24.09v-2.57h24.09v2.57Z"/>
  <path class="b" d="M910.56,54.16l-12.02,28.72h-2.88l11.96-28.72h2.94Z"/>
  <path class="b" d="M934.61,82.87h-2.9l-12-28.72h2.92l11.98,28.72Z"/>
  <path class="b" d="M958.7,82.87h-2.9l-12-28.72h2.92l11.98,28.72Z"/>
  <path class="b" d="M982.79,82.87h-2.9l-12-28.72h2.92l11.98,28.72Z"/>
  <path class="b" d="M1006.92,54.16l-12.02,28.72h-2.88l11.96-28.72h2.94Z"/>
  <path class="b" d="M1031.01,54.16l-12.02,28.72h-2.88l11.96-28.72h2.94Z"/>
  <path class="b" d="M1055.1,54.16l-12.02,28.72h-2.88l11.96-28.72h2.94Z"/>
  <path class="b" d="M1079.19,54.16l-12.02,28.72h-2.88l11.96-28.72h2.94Z"/>
  <path class="b" d="M1103.28,54.16l-12.02,28.72h-2.88l11.96-28.72h2.94Z"/>
  <path class="b" d="M1127.37,54.16l-12.02,28.72h-2.88l11.96-28.72h2.94Z"/>
  <path class="b" d="M1151.46,54.16l-12.02,28.72h-2.88l11.96-28.72h2.94Z"/>
  <path class="b" d="M1175.52,82.87h-2.9l-12-28.72h2.92l11.98,28.72Z"/>
  <path class="b" d="M1199.61,82.87h-2.9l-12-28.72h2.92l11.98,28.72Z"/>
  <path class="b" d="M1223.7,82.87h-2.9l-12-28.72h2.92l11.98,28.72Z"/>
  <path class="b" d="M1252.81,91.09h-24.09v-2.57h24.09v2.57Z"/>
  <path class="b" d="M1276.9,91.09h-24.09v-2.57h24.09v2.57Z"/>
  <path class="b" d="M1300.99,91.09h-24.09v-2.57h24.09v2.57Z"/>
  <path class="b" d="M1325.08,91.09h-24.09v-2.57h24.09v2.57Z"/>
  <path class="b" d="M1349.17,91.09h-24.09v-2.57h24.09v2.57Z"/>
  <path class="b" d="M1368.28,54.16l-12.02,28.72h-2.88l11.96-28.72h2.94Z"/>
  <path class="b" d="M1392.33,82.87h-2.9l-12-28.72h2.92l11.98,28.72Z"/>
  <path class="b" d="M1416.42,82.87h-2.9l-12-28.72h2.92l11.98,28.72Z"/>
  <path class="b" d="M1440.51,82.87h-2.9l-12-28.72h2.92l11.98,28.72Z"/>
  <path class="b" d="M1464.64,54.16l-12.02,28.72h-2.88l11.96-28.72h2.94Z"/>
  <path class="b" d="M1488.73,54.16l-12.02,28.72h-2.88l11.96-28.72h2.94Z"/>
  <path class="b" d="M1512.82,54.16l-12.02,28.72h-2.88l11.96-28.72h2.94Z"/>
  <path class="b" d="M1536.91,54.16l-12.02,28.72h-2.88l11.96-28.72h2.94Z"/>
  <path class="b" d="M1561,54.16l-12.02,28.72h-2.88l11.96-28.72h2.94Z"/>
  <path class="b" d="M1585.1,54.16l-12.02,28.72h-2.88l11.96-28.72h2.94Z"/>
  <path class="b" d="M1609.19,54.16l-12.02,28.72h-2.88l11.96-28.72h2.94Z"/>
  <path class="b" d="M1633.24,82.87h-2.9l-12-28.72h2.92l11.98,28.72Z"/>
  <path class="b" d="M1657.33,82.87h-2.9l-12-28.72h2.92l11.98,28.72Z"/>
  <path class="b" d="M1681.42,82.87h-2.9l-12-28.72h2.92l11.98,28.72Z"/>
  <path class="b" d="M1710.53,91.09h-24.09v-2.57h24.09v2.57Z"/>
  <path class="b" d="M1734.62,91.09h-24.09v-2.57h24.09v2.57Z"/>
  <path class="b" d="M1758.71,91.09h-24.09v-2.57h24.09v2.57Z"/>
  <path class="b" d="M1782.8,91.09h-24.09v-2.57h24.09v2.57Z"/>
  <path class="b" d="M1806.89,91.09h-24.09v-2.57h24.09v2.57Z"/>
  <path class="b" d="M1830.98,91.09h-24.09v-2.57h24.09v2.57Z"/>
  <path class="b" d="M1855.07,91.09h-24.09v-2.57h24.09v2.57Z"/>
  <path class="b" d="M1879.16,91.09h-24.09v-2.57h24.09v2.57Z"/>
  <path class="b" d="M1903.25,91.09h-24.09v-2.57h24.09v2.57Z"/>
  <path class="b" d="M24.19,139.26H.1v-2.57h24.09v2.57Z"/>
  <path class="b" d="M48.28,139.26h-24.09v-2.57h24.09v2.57Z"/>
  <path class="b" d="M72.37,139.26h-24.09v-2.57h24.09v2.57Z"/>
  <path class="b" d="M96.46,139.26h-24.09v-2.57h24.09v2.57Z"/>
  <path class="b" d="M115.57,102.33l-12.02,28.72h-2.88l11.96-28.72h2.94Z"/>
  <path class="b" d="M139.62,131.05h-2.9l-12-28.72h2.92l11.98,28.72Z"/>
  <path class="b" d="M163.71,131.05h-2.9l-12-28.72h2.92l11.98,28.72Z"/>
  <path class="b" d="M187.8,131.05h-2.9l-12-28.72h2.92l11.98,28.72Z"/>
  <path class="b" d="M216.91,139.26h-24.09v-2.57h24.09v2.57Z"/>
  <path class="b" d="M241,139.26h-24.09v-2.57h24.09v2.57Z"/>
  <path class="b" d="M265.09,139.26h-24.09v-2.57h24.09v2.57Z"/>
  <path class="b" d="M289.18,139.26h-24.09v-2.57h24.09v2.57Z"/>
  <path class="b" d="M313.27,139.26h-24.09v-2.57h24.09v2.57Z"/>
  <path class="b" d="M332.35,131.05h-2.9l-12-28.72h2.92l11.98,28.72Z"/>
  <path class="b" d="M356.48,102.33l-12.02,28.72h-2.88l11.96-28.72h2.94Z"/>
  <path class="b" d="M380.53,131.05h-2.9l-12-28.72h2.92l11.98,28.72Z"/>
  <path class="b" d="M404.62,131.05h-2.9l-12-28.72h2.92l11.98,28.72Z"/>
  <path class="b" d="M428.71,131.05h-2.9l-12-28.72h2.92l11.98,28.72Z"/>
  <path class="b" d="M457.82,139.26h-24.09v-2.57h24.09v2.57Z"/>
  <path class="b" d="M481.91,139.26h-24.09v-2.57h24.09v2.57Z"/>
  <path class="b" d="M501.02,102.33l-12.02,28.72h-2.88l11.96-28.72h2.94Z"/>
  <path class="b" d="M525.07,131.05h-2.9l-12-28.72h2.92l11.98,28.72Z"/>
  <path class="b" d="M549.16,131.05h-2.9l-12-28.72h2.92l11.98,28.72Z"/>
  <path class="b" d="M573.25,131.05h-2.9l-12-28.72h2.92l11.98,28.72Z"/>
  <path class="b" d="M602.36,139.26h-24.09v-2.57h24.09v2.57Z"/>
  <path class="b" d="M626.45,139.26h-24.09v-2.57h24.09v2.57Z"/>
  <path class="b" d="M650.54,139.26h-24.09v-2.57h24.09v2.57Z"/>
  <path class="b" d="M674.63,139.26h-24.09v-2.57h24.09v2.57Z"/>
  <path class="b" d="M698.72,139.26h-24.09v-2.57h24.09v2.57Z"/>
  <path class="b" d="M722.81,139.26h-24.09v-2.57h24.09v2.57Z"/>
  <path class="b" d="M746.9,139.26h-24.09v-2.57h24.09v2.57Z"/>
  <path class="b" d="M771,139.26h-24.09v-2.57h24.09v2.57Z"/>
  <path class="b" d="M795.09,139.26h-24.09v-2.57h24.09v2.57Z"/>
  <path class="b" d="M819.18,139.26h-24.09v-2.57h24.09v2.57Z"/>
  <path class="b" d="M843.27,139.26h-24.09v-2.57h24.09v2.57Z"/>
  <path class="b" d="M867.36,139.26h-24.09v-2.57h24.09v2.57Z"/>
  <path class="b" d="M891.45,139.26h-24.09v-2.57h24.09v2.57Z"/>
  <path class="b" d="M910.52,131.05h-2.9l-12-28.72h2.92l11.98,28.72Z"/>
  <path class="b" d="M934.65,102.33l-12.02,28.72h-2.88l11.96-28.72h2.94Z"/>
  <path class="b" d="M958.7,131.05h-2.9l-12-28.72h2.92l11.98,28.72Z"/>
  <path class="b" d="M982.79,131.05h-2.9l-12-28.72h2.92l11.98,28.72Z"/>
  <path class="b" d="M1006.88,131.05h-2.9l-12-28.72h2.92l11.98,28.72Z"/>
  <path class="b" d="M1035.99,139.26h-24.09v-2.57h24.09v2.57Z"/>
  <path class="b" d="M1060.08,139.26h-24.09v-2.57h24.09v2.57Z"/>
  <path class="b" d="M1084.17,139.26h-24.09v-2.57h24.09v2.57Z"/>
  <path class="b" d="M1108.26,139.26h-24.09v-2.57h24.09v2.57Z"/>
  <path class="b" d="M1132.35,139.26h-24.09v-2.57h24.09v2.57Z"/>
  <path class="b" d="M1151.43,131.05h-2.9l-12-28.72h2.92l11.98,28.72Z"/>
  <path class="b" d="M1175.56,102.33l-12.02,28.72h-2.88l11.96-28.72h2.94Z"/>
  <path class="b" d="M1199.61,131.05h-2.9l-12-28.72h2.92l11.98,28.72Z"/>
  <path class="b" d="M1223.7,131.05h-2.9l-12-28.72h2.92l11.98,28.72Z"/>
  <path class="b" d="M1247.79,131.05h-2.9l-12-28.72h2.92l11.98,28.72Z"/>
  <path class="b" d="M1276.9,139.26h-24.09v-2.57h24.09v2.57Z"/>
  <path class="b" d="M1300.99,139.26h-24.09v-2.57h24.09v2.57Z"/>
  <path class="b" d="M1325.08,139.26h-24.09v-2.57h24.09v2.57Z"/>
  <path class="b" d="M1349.17,139.26h-24.09v-2.57h24.09v2.57Z"/>
  <path class="b" d="M1368.24,131.05h-2.9l-12-28.72h2.92l11.98,28.72Z"/>
  <path class="b" d="M1392.37,102.33l-12.02,28.72h-2.88l11.96-28.72h2.94Z"/>
  <path class="b" d="M1416.46,102.33l-12.02,28.72h-2.88l11.96-28.72h2.94Z"/>
  <path class="b" d="M1440.55,102.33l-12.02,28.72h-2.88l11.96-28.72h2.94Z"/>
  <path class="b" d="M1469.62,139.26h-24.09v-2.57h24.09v2.57Z"/>
  <path class="b" d="M1493.71,139.26h-24.09v-2.57h24.09v2.57Z"/>
  <path class="b" d="M1517.8,139.26h-24.09v-2.57h24.09v2.57Z"/>
  <path class="b" d="M1541.89,139.26h-24.09v-2.57h24.09v2.57Z"/>
  <path class="b" d="M1565.98,139.26h-24.09v-2.57h24.09v2.57Z"/>
  <path class="b" d="M1590.08,139.26h-24.09v-2.57h24.09v2.57Z"/>
  <path class="b" d="M1609.19,102.33l-12.02,28.72h-2.88l11.96-28.72h2.94Z"/>
  <path class="b" d="M1633.24,131.05h-2.9l-12-28.72h2.92l11.98,28.72Z"/>
  <path class="b" d="M1657.33,131.05h-2.9l-12-28.72h2.92l11.98,28.72Z"/>
  <path class="b" d="M1681.42,131.05h-2.9l-12-28.72h2.92l11.98,28.72Z"/>
  <path class="b" d="M1710.53,139.26h-24.09v-2.57h24.09v2.57Z"/>
  <path class="b" d="M1734.62,139.26h-24.09v-2.57h24.09v2.57Z"/>
  <path class="b" d="M1758.71,139.26h-24.09v-2.57h24.09v2.57Z"/>
  <path class="b" d="M1782.8,139.26h-24.09v-2.57h24.09v2.57Z"/>
  <path class="b" d="M1806.89,139.26h-24.09v-2.57h24.09v2.57Z"/>
  <path class="b" d="M1830.98,139.26h-24.09v-2.57h24.09v2.57Z"/>
  <path class="b" d="M1855.07,139.26h-24.09v-2.57h24.09v2.57Z"/>
  <path class="b" d="M1879.16,139.26h-24.09v-2.57h24.09v2.57Z"/>
  <path class="b" d="M1903.25,139.26h-24.09v-2.57h24.09v2.57Z"/>
  <path class="b" d="M24.19,187.43H.1v-2.57h24.09v2.57Z"/>
  <path class="b" d="M48.28,187.43h-24.09v-2.57h24.09v2.57Z"/>
  <path class="b" d="M72.37,187.43h-24.09v-2.57h24.09v2.57Z"/>
  <path class="b" d="M96.46,187.43h-24.09v-2.57h24.09v2.57Z"/>
  <path class="b" d="M115.53,179.22h-2.9l-12-28.72h2.92l11.98,28.72Z"/>
  <path class="b" d="M139.66,150.5l-12.02,28.72h-2.88l11.96-28.72h2.94Z"/>
  <path class="b" d="M163.71,179.22h-2.9l-12-28.72h2.92l11.98,28.72Z"/>
  <path class="b" d="M187.8,179.22h-2.9l-12-28.72h2.92l11.98,28.72Z"/>
  <path class="b" d="M211.89,179.22h-2.9l-12-28.72h2.92l11.98,28.72Z"/>
  <path class="b" d="M241,187.43h-24.09v-2.57h24.09v2.57Z"/>
  <path class="b" d="M265.09,187.43h-24.09v-2.57h24.09v2.57Z"/>
  <path class="b" d="M289.18,187.43h-24.09v-2.57h24.09v2.57Z"/>
  <path class="b" d="M313.27,187.43h-24.09v-2.57h24.09v2.57Z"/>
  <path class="b" d="M337.36,187.43h-24.09v-2.57h24.09v2.57Z"/>
  <path class="b" d="M356.44,179.22h-2.9l-12-28.72h2.92l11.98,28.72Z"/>
  <path class="b" d="M380.57,150.5l-12.02,28.72h-2.88l11.96-28.72h2.94Z"/>
  <path class="b" d="M404.62,179.22h-2.9l-12-28.72h2.92l11.98,28.72Z"/>
  <path class="b" d="M428.71,179.22h-2.9l-12-28.72h2.92l11.98,28.72Z"/>
  <path class="b" d="M452.8,179.22h-2.9l-12-28.72h2.92l11.98,28.72Z"/>
  <path class="b" d="M481.91,187.43h-24.09v-2.57h24.09v2.57Z"/>
  <path class="b" d="M500.98,179.22h-2.9l-12-28.72h2.92l11.98,28.72Z"/>
  <path class="b" d="M525.11,150.5l-12.02,28.72h-2.88l11.96-28.72h2.94Z"/>
  <path class="b" d="M549.16,179.22h-2.9l-12-28.72h2.92l11.98,28.72Z"/>
  <path class="b" d="M573.25,179.22h-2.9l-12-28.72h2.92l11.98,28.72Z"/>
  <path class="b" d="M597.34,179.22h-2.9l-12-28.72h2.92l11.98,28.72Z"/>
  <path class="b" d="M626.45,187.43h-24.09v-2.57h24.09v2.57Z"/>
  <path class="b" d="M650.54,187.43h-24.09v-2.57h24.09v2.57Z"/>
  <path class="b" d="M674.63,187.43h-24.09v-2.57h24.09v2.57Z"/>
  <path class="b" d="M698.72,187.43h-24.09v-2.57h24.09v2.57Z"/>
  <path class="b" d="M717.83,150.5l-12.02,28.72h-2.88l11.96-28.72h2.94Z"/>
  <path class="b" d="M741.89,179.22h-2.9l-12-28.72h2.92l11.98,28.72Z"/>
  <path class="b" d="M765.98,179.22h-2.9l-12-28.72h2.92l11.98,28.72Z"/>
  <path class="b" d="M790.07,179.22h-2.9l-12-28.72h2.92l11.98,28.72Z"/>
  <path class="b" d="M814.16,179.22h-2.9l-12-28.72h2.92l11.98,28.72Z"/>
  <path class="b" d="M838.25,179.22h-2.9l-12-28.72h2.92l11.98,28.72Z"/>
  <path class="b" d="M862.34,179.22h-2.9l-12-28.72h2.92l11.98,28.72Z"/>
  <path class="b" d="M886.43,179.22h-2.9l-12-28.72h2.92l11.98,28.72Z"/>
  <path class="b" d="M915.54,187.43h-24.09v-2.57h24.09v2.57Z"/>
  <path class="b" d="M934.61,179.22h-2.9l-12-28.72h2.92l11.98,28.72Z"/>
  <path class="b" d="M958.74,150.5l-12.02,28.72h-2.88l11.96-28.72h2.94Z"/>
  <path class="b" d="M982.79,179.22h-2.9l-12-28.72h2.92l11.98,28.72Z"/>
  <path class="b" d="M1006.88,179.22h-2.9l-12-28.72h2.92l11.98,28.72Z"/>
  <path class="b" d="M1030.97,179.22h-2.9l-12-28.72h2.92l11.98,28.72Z"/>
  <path class="b" d="M1055.06,179.22h-2.9l-12-28.72h2.92l11.98,28.72Z"/>
  <path class="b" d="M1079.15,179.22h-2.9l-12-28.72h2.92l11.98,28.72Z"/>
  <path class="b" d="M1103.24,179.22h-2.9l-12-28.72h2.92l11.98,28.72Z"/>
  <path class="b" d="M1127.33,179.22h-2.9l-12-28.72h2.92l11.98,28.72Z"/>
  <path class="b" d="M1151.43,179.22h-2.9l-12-28.72h2.92l11.98,28.72Z"/>
  <path class="b" d="M1175.52,179.22h-2.9l-12-28.72h2.92l11.98,28.72Z"/>
  <path class="b" d="M1199.61,179.22h-2.9l-12-28.72h2.92l11.98,28.72Z"/>
  <path class="b" d="M1223.7,179.22h-2.9l-12-28.72h2.92l11.98,28.72Z"/>
  <path class="b" d="M1247.83,150.5l-12.02,28.72h-2.88l11.96-28.72h2.94Z"/>
  <path class="b" d="M1276.9,187.43h-24.09v-2.57h24.09v2.57Z"/>
  <path class="b" d="M1300.99,187.43h-24.09v-2.57h24.09v2.57Z"/>
  <path class="b" d="M1325.08,187.43h-24.09v-2.57h24.09v2.57Z"/>
  <path class="b" d="M1349.17,187.43h-24.09v-2.57h24.09v2.57Z"/>
  <path class="b" d="M1373.26,187.43h-24.09v-2.57h24.09v2.57Z"/>
  <path class="b" d="M1397.35,187.43h-24.09v-2.57h24.09v2.57Z"/>
  <path class="b" d="M1421.44,187.43h-24.09v-2.57h24.09v2.57Z"/>
  <path class="b" d="M1445.53,187.43h-24.09v-2.57h24.09v2.57Z"/>
  <path class="b" d="M1469.62,187.43h-24.09v-2.57h24.09v2.57Z"/>
  <path class="b" d="M1493.71,187.43h-24.09v-2.57h24.09v2.57Z"/>
  <path class="b" d="M1517.8,187.43h-24.09v-2.57h24.09v2.57Z"/>
  <path class="b" d="M1541.89,187.43h-24.09v-2.57h24.09v2.57Z"/>
  <path class="b" d="M1561,150.5l-12.02,28.72h-2.88l11.96-28.72h2.94Z"/>
  <path class="b" d="M1585.06,179.22h-2.9l-12-28.72h2.92l11.98,28.72Z"/>
  <path class="b" d="M1609.15,179.22h-2.9l-12-28.72h2.92l11.98,28.72Z"/>
  <path class="b" d="M1633.24,179.22h-2.9l-12-28.72h2.92l11.98,28.72Z"/>
  <path class="b" d="M1657.37,150.5l-12.02,28.72h-2.88l11.96-28.72h2.94Z"/>
  <path class="b" d="M1681.46,150.5l-12.02,28.72h-2.88l11.96-28.72h2.94Z"/>
  <path class="b" d="M1710.53,187.43h-24.09v-2.57h24.09v2.57Z"/>
  <path class="b" d="M1734.62,187.43h-24.09v-2.57h24.09v2.57Z"/>
  <path class="b" d="M1758.71,187.43h-24.09v-2.57h24.09v2.57Z"/>
  <path class="b" d="M1782.8,187.43h-24.09v-2.57h24.09v2.57Z"/>
  <path class="b" d="M1806.89,187.43h-24.09v-2.57h24.09v2.57Z"/>
  <path class="b" d="M1830.98,187.43h-24.09v-2.57h24.09v2.57Z"/>
  <path class="b" d="M1855.07,187.43h-24.09v-2.57h24.09v2.57Z"/>
  <path class="b" d="M1879.16,187.43h-24.09v-2.57h24.09v2.57Z"/>
  <path class="b" d="M1903.25,187.43h-24.09v-2.57h24.09v2.57Z"/>
  <path class="b" d="M24.19,235.61H.1v-2.57h24.09v2.57Z"/>
  <path class="b" d="M48.28,235.61h-24.09v-2.57h24.09v2.57Z"/>
  <path class="b" d="M72.37,235.61h-24.09v-2.57h24.09v2.57Z"/>
  <path class="b" d="M96.46,235.61h-24.09v-2.57h24.09v2.57Z"/>
  <path class="b" d="M120.55,235.61h-24.09v-2.57h24.09v2.57Z"/>
  <path class="b" d="M139.62,227.39h-2.9l-12-28.72h2.92l11.98,28.72Z"/>
  <path class="b" d="M163.75,198.68l-12.02,28.72h-2.88l11.96-28.72h2.94Z"/>
  <path class="b" d="M187.8,227.39h-2.9l-12-28.72h2.92l11.98,28.72Z"/>
  <path class="b" d="M211.89,227.39h-2.9l-12-28.72h2.92l11.98,28.72Z"/>
  <path class="b" d="M235.98,227.39h-2.9l-12-28.72h2.92l11.98,28.72Z"/>
  <path class="b" d="M265.09,235.61h-24.09v-2.57h24.09v2.57Z"/>
  <path class="b" d="M289.18,235.61h-24.09v-2.57h24.09v2.57Z"/>
  <path class="b" d="M313.27,235.61h-24.09v-2.57h24.09v2.57Z"/>
  <path class="b" d="M337.36,235.61h-24.09v-2.57h24.09v2.57Z"/>
  <path class="b" d="M361.46,235.61h-24.09v-2.57h24.09v2.57Z"/>
  <path class="b" d="M380.53,227.39h-2.9l-12-28.72h2.92l11.98,28.72Z"/>
  <path class="b" d="M404.66,198.68l-12.02,28.72h-2.88l11.96-28.72h2.94Z"/>
  <path class="b" d="M428.71,227.39h-2.9l-12-28.72h2.92l11.98,28.72Z"/>
  <path class="b" d="M452.8,227.39h-2.9l-12-28.72h2.92l11.98,28.72Z"/>
  <path class="b" d="M476.89,227.39h-2.9l-12-28.72h2.92l11.98,28.72Z"/>
  <path class="b" d="M506,235.61h-24.09v-2.57h24.09v2.57Z"/>
  <path class="b" d="M525.07,227.39h-2.9l-12-28.72h2.92l11.98,28.72Z"/>
  <path class="b" d="M549.2,198.68l-12.02,28.72h-2.88l11.96-28.72h2.94Z"/>
  <path class="b" d="M573.25,227.39h-2.9l-12-28.72h2.92l11.98,28.72Z"/>
  <path class="b" d="M597.34,227.39h-2.9l-12-28.72h2.92l11.98,28.72Z"/>
  <path class="b" d="M621.43,227.39h-2.9l-12-28.72h2.92l11.98,28.72Z"/>
  <path class="b" d="M650.54,235.61h-24.09v-2.57h24.09v2.57Z"/>
  <path class="b" d="M674.63,235.61h-24.09v-2.57h24.09v2.57Z"/>
  <path class="b" d="M698.72,235.61h-24.09v-2.57h24.09v2.57Z"/>
  <path class="b" d="M717.79,227.39h-2.9l-12-28.72h2.92l11.98,28.72Z"/>
  <path class="b" d="M741.92,198.68l-12.02,28.72h-2.88l11.96-28.72h2.94Z"/>
  <path class="b" d="M766.02,198.68l-12.02,28.72h-2.88l11.96-28.72h2.94Z"/>
  <path class="b" d="M790.11,198.68l-12.02,28.72h-2.88l11.96-28.72h2.94Z"/>
  <path class="b" d="M814.2,198.68l-12.02,28.72h-2.88l11.96-28.72h2.94Z"/>
  <path class="b" d="M838.29,198.68l-12.02,28.72h-2.88l11.96-28.72h2.94Z"/>
  <path class="b" d="M862.34,227.39h-2.9l-12-28.72h2.92l11.98,28.72Z"/>
  <path class="b" d="M886.43,227.39h-2.9l-12-28.72h2.92l11.98,28.72Z"/>
  <path class="b" d="M910.52,227.39h-2.9l-12-28.72h2.92l11.98,28.72Z"/>
  <path class="b" d="M939.63,235.61h-24.09v-2.57h24.09v2.57Z"/>
  <path class="b" d="M958.7,227.39h-2.9l-12-28.72h2.92l11.98,28.72Z"/>
  <path class="b" d="M982.83,198.68l-12.02,28.72h-2.88l11.96-28.72h2.94Z"/>
  <path class="b" d="M1006.88,227.39h-2.9l-12-28.72h2.92l11.98,28.72Z"/>
  <path class="b" d="M1030.97,227.39h-2.9l-12-28.72h2.92l11.98,28.72Z"/>
  <path class="b" d="M1055.06,227.39h-2.9l-12-28.72h2.92l11.98,28.72Z"/>
  <path class="b" d="M1079.19,198.68l-12.02,28.72h-2.88l11.96-28.72h2.94Z"/>
  <path class="b" d="M1103.28,198.68l-12.02,28.72h-2.88l11.96-28.72h2.94Z"/>
  <path class="b" d="M1127.37,198.68l-12.02,28.72h-2.88l11.96-28.72h2.94Z"/>
  <path class="b" d="M1151.46,198.68l-12.02,28.72h-2.88l11.96-28.72h2.94Z"/>
  <path class="b" d="M1175.56,198.68l-12.02,28.72h-2.88l11.96-28.72h2.94Z"/>
  <path class="b" d="M1199.65,198.68l-12.02,28.72h-2.88l11.96-28.72h2.94Z"/>
  <path class="b" d="M1223.7,227.39h-2.9l-12-28.72h2.92l11.98,28.72Z"/>
  <path class="b" d="M1247.79,227.39h-2.9l-12-28.72h2.92l11.98,28.72Z"/>
  <path class="b" d="M1271.88,227.39h-2.9l-12-28.72h2.92l11.98,28.72Z"/>
  <path class="b" d="M1300.99,235.61h-24.09v-2.57h24.09v2.57Z"/>
  <path class="b" d="M1325.08,235.61h-24.09v-2.57h24.09v2.57Z"/>
  <path class="b" d="M1349.17,235.61h-24.09v-2.57h24.09v2.57Z"/>
  <path class="b" d="M1373.26,235.61h-24.09v-2.57h24.09v2.57Z"/>
  <path class="b" d="M1397.35,235.61h-24.09v-2.57h24.09v2.57Z"/>
  <path class="b" d="M1421.44,235.61h-24.09v-2.57h24.09v2.57Z"/>
  <path class="b" d="M1445.53,235.61h-24.09v-2.57h24.09v2.57Z"/>
  <path class="b" d="M1469.62,235.61h-24.09v-2.57h24.09v2.57Z"/>
  <path class="b" d="M1493.71,235.61h-24.09v-2.57h24.09v2.57Z"/>
  <path class="b" d="M1517.8,235.61h-24.09v-2.57h24.09v2.57Z"/>
  <path class="b" d="M1541.89,235.61h-24.09v-2.57h24.09v2.57Z"/>
  <path class="b" d="M1560.97,227.39h-2.9l-12-28.72h2.92l11.98,28.72Z"/>
  <path class="b" d="M1585.1,198.68l-12.02,28.72h-2.88l11.96-28.72h2.94Z"/>
  <path class="b" d="M1609.19,198.68l-12.02,28.72h-2.88l11.96-28.72h2.94Z"/>
  <path class="b" d="M1633.28,198.68l-12.02,28.72h-2.88l11.96-28.72h2.94Z"/>
  <path class="b" d="M1657.37,198.68l-12.02,28.72h-2.88l11.96-28.72h2.94Z"/>
  <path class="b" d="M1681.42,227.39h-2.9l-12-28.72h2.92l11.98,28.72Z"/>
  <path class="b" d="M1705.51,227.39h-2.9l-12-28.72h2.92l11.98,28.72Z"/>
  <path class="b" d="M1729.6,227.39h-2.9l-12-28.72h2.92l11.98,28.72Z"/>
  <path class="b" d="M1758.71,235.61h-24.09v-2.57h24.09v2.57Z"/>
  <path class="b" d="M1782.8,235.61h-24.09v-2.57h24.09v2.57Z"/>
  <path class="b" d="M1806.89,235.61h-24.09v-2.57h24.09v2.57Z"/>
  <path class="b" d="M1830.98,235.61h-24.09v-2.57h24.09v2.57Z"/>
  <path class="b" d="M1855.07,235.61h-24.09v-2.57h24.09v2.57Z"/>
  <path class="b" d="M1879.16,235.61h-24.09v-2.57h24.09v2.57Z"/>
  <path class="b" d="M1903.25,235.61h-24.09v-2.57h24.09v2.57Z"/>
  <path class="b" d="M24.19,283.78H.1v-2.57h24.09v2.57Z"/>
  <path class="b" d="M48.28,283.78h-24.09v-2.57h24.09v2.57Z"/>
  <path class="b" d="M72.37,283.78h-24.09v-2.57h24.09v2.57Z"/>
  <path class="b" d="M96.46,283.78h-24.09v-2.57h24.09v2.57Z"/>
  <path class="b" d="M120.55,283.78h-24.09v-2.57h24.09v2.57Z"/>
  <path class="b" d="M144.64,283.78h-24.09v-2.57h24.09v2.57Z"/>
  <path class="b" d="M163.71,275.57h-2.9l-12-28.72h2.92l11.98,28.72Z"/>
  <path class="b" d="M187.84,246.85l-12.02,28.72h-2.88l11.96-28.72h2.94Z"/>
  <path class="b" d="M211.89,275.57h-2.9l-12-28.72h2.92l11.98,28.72Z"/>
  <path class="b" d="M235.98,275.57h-2.9l-12-28.72h2.92l11.98,28.72Z"/>
  <path class="b" d="M260.07,275.57h-2.9l-12-28.72h2.92l11.98,28.72Z"/>
  <path class="b" d="M289.18,283.78h-24.09v-2.57h24.09v2.57Z"/>
  <path class="b" d="M313.27,283.78h-24.09v-2.57h24.09v2.57Z"/>
  <path class="b" d="M337.36,283.78h-24.09v-2.57h24.09v2.57Z"/>
  <path class="b" d="M361.46,283.78h-24.09v-2.57h24.09v2.57Z"/>
  <path class="b" d="M385.55,283.78h-24.09v-2.57h24.09v2.57Z"/>
  <path class="b" d="M404.62,275.57h-2.9l-12-28.72h2.92l11.98,28.72Z"/>
  <path class="b" d="M428.75,246.85l-12.02,28.72h-2.88l11.96-28.72h2.94Z"/>
  <path class="b" d="M452.8,275.57h-2.9l-12-28.72h2.92l11.98,28.72Z"/>
  <path class="b" d="M476.89,275.57h-2.9l-12-28.72h2.92l11.98,28.72Z"/>
  <path class="b" d="M500.98,275.57h-2.9l-12-28.72h2.92l11.98,28.72Z"/>
  <path class="b" d="M530.09,283.78h-24.09v-2.57h24.09v2.57Z"/>
  <path class="b" d="M549.16,275.57h-2.9l-12-28.72h2.92l11.98,28.72Z"/>
  <path class="b" d="M573.29,246.85l-12.02,28.72h-2.88l11.96-28.72h2.94Z"/>
  <path class="b" d="M597.34,275.57h-2.9l-12-28.72h2.92l11.98,28.72Z"/>
  <path class="b" d="M621.43,275.57h-2.9l-12-28.72h2.92l11.98,28.72Z"/>
  <path class="b" d="M645.52,275.57h-2.9l-12-28.72h2.92l11.98,28.72Z"/>
  <path class="b" d="M674.63,283.78h-24.09v-2.57h24.09v2.57Z"/>
  <path class="b" d="M698.72,283.78h-24.09v-2.57h24.09v2.57Z"/>
  <path class="b" d="M722.81,283.78h-24.09v-2.57h24.09v2.57Z"/>
  <path class="b" d="M746.9,283.78h-24.09v-2.57h24.09v2.57Z"/>
  <path class="b" d="M771,283.78h-24.09v-2.57h24.09v2.57Z"/>
  <path class="b" d="M795.09,283.78h-24.09v-2.57h24.09v2.57Z"/>
  <path class="b" d="M819.18,283.78h-24.09v-2.57h24.09v2.57Z"/>
  <path class="b" d="M838.25,275.57h-2.9l-12-28.72h2.92l11.98,28.72Z"/>
  <path class="b" d="M862.38,246.85l-12.02,28.72h-2.88l11.96-28.72h2.94Z"/>
  <path class="b" d="M886.43,275.57h-2.9l-12-28.72h2.92l11.98,28.72Z"/>
  <path class="b" d="M910.52,275.57h-2.9l-12-28.72h2.92l11.98,28.72Z"/>
  <path class="b" d="M934.61,275.57h-2.9l-12-28.72h2.92l11.98,28.72Z"/>
  <path class="b" d="M963.72,283.78h-24.09v-2.57h24.09v2.57Z"/>
  <path class="b" d="M982.79,275.57h-2.9l-12-28.72h2.92l11.98,28.72Z"/>
  <path class="b" d="M1006.92,246.85l-12.02,28.72h-2.88l11.96-28.72h2.94Z"/>
  <path class="b" d="M1030.97,275.57h-2.9l-12-28.72h2.92l11.98,28.72Z"/>
  <path class="b" d="M1055.06,275.57h-2.9l-12-28.72h2.92l11.98,28.72Z"/>
  <path class="b" d="M1079.15,275.57h-2.9l-12-28.72h2.92l11.98,28.72Z"/>
  <path class="b" d="M1108.26,283.78h-24.09v-2.57h24.09v2.57Z"/>
  <path class="b" d="M1132.35,283.78h-24.09v-2.57h24.09v2.57Z"/>
  <path class="b" d="M1156.44,283.78h-24.09v-2.57h24.09v2.57Z"/>
  <path class="b" d="M1180.54,283.78h-24.09v-2.57h24.09v2.57Z"/>
  <path class="b" d="M1204.63,283.78h-24.09v-2.57h24.09v2.57Z"/>
  <path class="b" d="M1223.7,275.57h-2.9l-12-28.72h2.92l11.98,28.72Z"/>
  <path class="b" d="M1247.83,246.85l-12.02,28.72h-2.88l11.96-28.72h2.94Z"/>
  <path class="b" d="M1271.88,275.57h-2.9l-12-28.72h2.92l11.98,28.72Z"/>
  <path class="b" d="M1295.97,275.57h-2.9l-12-28.72h2.92l11.98,28.72Z"/>
  <path class="b" d="M1320.06,275.57h-2.9l-12-28.72h2.92l11.98,28.72Z"/>
  <path class="b" d="M1349.17,283.78h-24.09v-2.57h24.09v2.57Z"/>
  <path class="b" d="M1373.26,283.78h-24.09v-2.57h24.09v2.57Z"/>
  <path class="b" d="M1397.35,283.78h-24.09v-2.57h24.09v2.57Z"/>
  <path class="b" d="M1421.44,283.78h-24.09v-2.57h24.09v2.57Z"/>
  <path class="b" d="M1445.53,283.78h-24.09v-2.57h24.09v2.57Z"/>
  <path class="b" d="M1469.62,283.78h-24.09v-2.57h24.09v2.57Z"/>
  <path class="b" d="M1493.71,283.78h-24.09v-2.57h24.09v2.57Z"/>
  <path class="b" d="M1517.8,283.78h-24.09v-2.57h24.09v2.57Z"/>
  <path class="b" d="M1541.89,283.78h-24.09v-2.57h24.09v2.57Z"/>
  <path class="b" d="M1565.98,283.78h-24.09v-2.57h24.09v2.57Z"/>
  <path class="b" d="M1590.08,283.78h-24.09v-2.57h24.09v2.57Z"/>
  <path class="b" d="M1614.17,283.78h-24.09v-2.57h24.09v2.57Z"/>
  <path class="b" d="M1633.24,275.57h-2.9l-12-28.72h2.92l11.98,28.72Z"/>
  <path class="b" d="M1657.37,246.85l-12.02,28.72h-2.88l11.96-28.72h2.94Z"/>
  <path class="b" d="M1681.46,246.85l-12.02,28.72h-2.88l11.96-28.72h2.94Z"/>
  <path class="b" d="M1705.51,275.57h-2.9l-12-28.72h2.92l11.98,28.72Z"/>
  <path class="b" d="M1729.6,275.57h-2.9l-12-28.72h2.92l11.98,28.72Z"/>
  <path class="b" d="M1753.69,275.57h-2.9l-12-28.72h2.92l11.98,28.72Z"/>
  <path class="b" d="M1782.8,283.78h-24.09v-2.57h24.09v2.57Z"/>
  <path class="b" d="M1806.89,283.78h-24.09v-2.57h24.09v2.57Z"/>
  <path class="b" d="M1830.98,283.78h-24.09v-2.57h24.09v2.57Z"/>
  <path class="b" d="M1855.07,283.78h-24.09v-2.57h24.09v2.57Z"/>
  <path class="b" d="M1879.16,283.78h-24.09v-2.57h24.09v2.57Z"/>
  <path class="b" d="M1903.25,283.78h-24.09v-2.57h24.09v2.57Z"/>
  <path class="b" d="M24.19,331.95H.1v-2.57h24.09v2.57Z"/>
  <path class="b" d="M48.28,331.95h-24.09v-2.57h24.09v2.57Z"/>
  <path class="b" d="M72.37,331.95h-24.09v-2.57h24.09v2.57Z"/>
  <path class="b" d="M96.46,331.95h-24.09v-2.57h24.09v2.57Z"/>
  <path class="b" d="M120.55,331.95h-24.09v-2.57h24.09v2.57Z"/>
  <path class="b" d="M144.64,331.95h-24.09v-2.57h24.09v2.57Z"/>
  <path class="b" d="M168.73,331.95h-24.09v-2.57h24.09v2.57Z"/>
  <path class="b" d="M187.8,323.74h-2.9l-12-28.72h2.92l11.98,28.72Z"/>
  <path class="b" d="M211.93,295.02l-12.02,28.72h-2.88l11.96-28.72h2.94Z"/>
  <path class="b" d="M236.02,295.02l-12.02,28.72h-2.88l11.96-28.72h2.94Z"/>
  <path class="b" d="M260.07,323.74h-2.9l-12-28.72h2.92l11.98,28.72Z"/>
  <path class="b" d="M284.17,323.74h-2.9l-12-28.72h2.92l11.98,28.72Z"/>
  <path class="b" d="M308.26,323.74h-2.9l-12-28.72h2.92l11.98,28.72Z"/>
  <path class="b" d="M337.36,331.95h-24.09v-2.57h24.09v2.57Z"/>
  <path class="b" d="M361.46,331.95h-24.09v-2.57h24.09v2.57Z"/>
  <path class="b" d="M385.55,331.95h-24.09v-2.57h24.09v2.57Z"/>
  <path class="b" d="M409.64,331.95h-24.09v-2.57h24.09v2.57Z"/>
  <path class="b" d="M428.75,295.02l-12.02,28.72h-2.88l11.96-28.72h2.94Z"/>
  <path class="b" d="M452.8,323.74h-2.9l-12-28.72h2.92l11.98,28.72Z"/>
  <path class="b" d="M476.89,323.74h-2.9l-12-28.72h2.92l11.98,28.72Z"/>
  <path class="b" d="M500.98,323.74h-2.9l-12-28.72h2.92l11.98,28.72Z"/>
  <path class="b" d="M530.09,331.95h-24.09v-2.57h24.09v2.57Z"/>
  <path class="b" d="M554.18,331.95h-24.09v-2.57h24.09v2.57Z"/>
  <path class="b" d="M573.25,323.74h-2.9l-12-28.72h2.92l11.98,28.72Z"/>
  <path class="b" d="M597.38,295.02l-12.02,28.72h-2.88l11.96-28.72h2.94Z"/>
  <path class="b" d="M621.43,323.74h-2.9l-12-28.72h2.92l11.98,28.72Z"/>
  <path class="b" d="M645.52,323.74h-2.9l-12-28.72h2.92l11.98,28.72Z"/>
  <path class="b" d="M669.61,323.74h-2.9l-12-28.72h2.92l11.98,28.72Z"/>
  <path class="b" d="M698.72,331.95h-24.09v-2.57h24.09v2.57Z"/>
  <path class="b" d="M722.81,331.95h-24.09v-2.57h24.09v2.57Z"/>
  <path class="b" d="M746.9,331.95h-24.09v-2.57h24.09v2.57Z"/>
  <path class="b" d="M771,331.95h-24.09v-2.57h24.09v2.57Z"/>
  <path class="b" d="M795.09,331.95h-24.09v-2.57h24.09v2.57Z"/>
  <path class="b" d="M819.18,331.95h-24.09v-2.57h24.09v2.57Z"/>
  <path class="b" d="M843.27,331.95h-24.09v-2.57h24.09v2.57Z"/>
  <path class="b" d="M862.34,323.74h-2.9l-12-28.72h2.92l11.98,28.72Z"/>
  <path class="b" d="M886.47,295.02l-12.02,28.72h-2.88l11.96-28.72h2.94Z"/>
  <path class="b" d="M910.52,323.74h-2.9l-12-28.72h2.92l11.98,28.72Z"/>
  <path class="b" d="M934.61,323.74h-2.9l-12-28.72h2.92l11.98,28.72Z"/>
  <path class="b" d="M958.7,323.74h-2.9l-12-28.72h2.92l11.98,28.72Z"/>
  <path class="b" d="M987.81,331.95h-24.09v-2.57h24.09v2.57Z"/>
  <path class="b" d="M1006.88,323.74h-2.9l-12-28.72h2.92l11.98,28.72Z"/>
  <path class="b" d="M1031.01,295.02l-12.02,28.72h-2.88l11.96-28.72h2.94Z"/>
  <path class="b" d="M1055.06,323.74h-2.9l-12-28.72h2.92l11.98,28.72Z"/>
  <path class="b" d="M1079.15,323.74h-2.9l-12-28.72h2.92l11.98,28.72Z"/>
  <path class="b" d="M1103.24,323.74h-2.9l-12-28.72h2.92l11.98,28.72Z"/>
  <path class="b" d="M1132.35,331.95h-24.09v-2.57h24.09v2.57Z"/>
  <path class="b" d="M1156.44,331.95h-24.09v-2.57h24.09v2.57Z"/>
  <path class="b" d="M1180.54,331.95h-24.09v-2.57h24.09v2.57Z"/>
  <path class="b" d="M1204.63,331.95h-24.09v-2.57h24.09v2.57Z"/>
  <path class="b" d="M1228.72,331.95h-24.09v-2.57h24.09v2.57Z"/>
  <path class="b" d="M1247.79,323.74h-2.9l-12-28.72h2.92l11.98,28.72Z"/>
  <path class="b" d="M1271.92,295.02l-12.02,28.72h-2.88l11.96-28.72h2.94Z"/>
  <path class="b" d="M1295.97,323.74h-2.9l-12-28.72h2.92l11.98,28.72Z"/>
  <path class="b" d="M1320.06,323.74h-2.9l-12-28.72h2.92l11.98,28.72Z"/>
  <path class="b" d="M1344.15,323.74h-2.9l-12-28.72h2.92l11.98,28.72Z"/>
  <path class="b" d="M1373.26,331.95h-24.09v-2.57h24.09v2.57Z"/>
  <path class="b" d="M1397.35,331.95h-24.09v-2.57h24.09v2.57Z"/>
  <path class="b" d="M1421.44,331.95h-24.09v-2.57h24.09v2.57Z"/>
  <path class="b" d="M1440.55,295.02l-12.02,28.72h-2.88l11.96-28.72h2.94Z"/>
  <path class="b" d="M1464.6,323.74h-2.9l-12-28.72h2.92l11.98,28.72Z"/>
  <path class="b" d="M1488.69,323.74h-2.9l-12-28.72h2.92l11.98,28.72Z"/>
  <path class="b" d="M1512.78,323.74h-2.9l-12-28.72h2.92l11.98,28.72Z"/>
  <path class="b" d="M1541.89,331.95h-24.09v-2.57h24.09v2.57Z"/>
  <path class="b" d="M1565.98,331.95h-24.09v-2.57h24.09v2.57Z"/>
  <path class="b" d="M1590.08,331.95h-24.09v-2.57h24.09v2.57Z"/>
  <path class="b" d="M1614.17,331.95h-24.09v-2.57h24.09v2.57Z"/>
  <path class="b" d="M1638.26,331.95h-24.09v-2.57h24.09v2.57Z"/>
  <path class="b" d="M1662.35,331.95h-24.09v-2.57h24.09v2.57Z"/>
  <path class="b" d="M1681.46,295.02l-12.02,28.72h-2.88l11.96-28.72h2.94Z"/>
  <path class="b" d="M1705.51,323.74h-2.9l-12-28.72h2.92l11.98,28.72Z"/>
  <path class="b" d="M1729.6,323.74h-2.9l-12-28.72h2.92l11.98,28.72Z"/>
  <path class="b" d="M1753.69,323.74h-2.9l-12-28.72h2.92l11.98,28.72Z"/>
  <path class="b" d="M1782.8,331.95h-24.09v-2.57h24.09v2.57Z"/>
  <path class="b" d="M1806.89,331.95h-24.09v-2.57h24.09v2.57Z"/>
  <path class="b" d="M1830.98,331.95h-24.09v-2.57h24.09v2.57Z"/>
  <path class="b" d="M1855.07,331.95h-24.09v-2.57h24.09v2.57Z"/>
  <path class="b" d="M1879.16,331.95h-24.09v-2.57h24.09v2.57Z"/>
  <path class="b" d="M1903.25,331.95h-24.09v-2.57h24.09v2.57Z"/>
  <path class="b" d="M24.19,380.13H.1v-2.57h24.09v2.57Z"/>
  <path class="b" d="M48.28,380.13h-24.09v-2.57h24.09v2.57Z"/>
  <path class="b" d="M72.37,380.13h-24.09v-2.57h24.09v2.57Z"/>
  <path class="b" d="M96.46,380.13h-24.09v-2.57h24.09v2.57Z"/>
  <path class="b" d="M120.55,380.13h-24.09v-2.57h24.09v2.57Z"/>
  <path class="b" d="M144.64,380.13h-24.09v-2.57h24.09v2.57Z"/>
  <path class="b" d="M168.73,380.13h-24.09v-2.57h24.09v2.57Z"/>
  <path class="b" d="M192.82,380.13h-24.09v-2.57h24.09v2.57Z"/>
  <path class="b" d="M211.89,371.91h-2.9l-12-28.72h2.92l11.98,28.72Z"/>
  <path class="b" d="M236.02,343.2l-12.02,28.72h-2.88l11.96-28.72h2.94Z"/>
  <path class="b" d="M260.11,343.2l-12.02,28.72h-2.88l11.96-28.72h2.94Z"/>
  <path class="b" d="M284.2,343.2l-12.02,28.72h-2.88l11.96-28.72h2.94Z"/>
  <path class="b" d="M308.26,371.91h-2.9l-12-28.72h2.92l11.98,28.72Z"/>
  <path class="b" d="M332.35,371.91h-2.9l-12-28.72h2.92l11.98,28.72Z"/>
  <path class="b" d="M356.44,371.91h-2.9l-12-28.72h2.92l11.98,28.72Z"/>
  <path class="b" d="M380.53,371.91h-2.9l-12-28.72h2.92l11.98,28.72Z"/>
  <path class="b" d="M404.62,371.91h-2.9l-12-28.72h2.92l11.98,28.72Z"/>
  <path class="b" d="M428.71,371.91h-2.9l-12-28.72h2.92l11.98,28.72Z"/>
  <path class="b" d="M452.8,371.91h-2.9l-12-28.72h2.92l11.98,28.72Z"/>
  <path class="b" d="M476.93,343.2l-12.02,28.72h-2.88l11.96-28.72h2.94Z"/>
  <path class="b" d="M506,380.13h-24.09v-2.57h24.09v2.57Z"/>
  <path class="b" d="M530.09,380.13h-24.09v-2.57h24.09v2.57Z"/>
  <path class="b" d="M554.18,380.13h-24.09v-2.57h24.09v2.57Z"/>
  <path class="b" d="M573.25,371.91h-2.9l-12-28.72h2.92l11.98,28.72Z"/>
  <path class="b" d="M597.38,343.2l-12.02,28.72h-2.88l11.96-28.72h2.94Z"/>
  <path class="b" d="M621.47,343.2l-12.02,28.72h-2.88l11.96-28.72h2.94Z"/>
  <path class="b" d="M645.52,371.91h-2.9l-12-28.72h2.92l11.98,28.72Z"/>
  <path class="b" d="M669.61,371.91h-2.9l-12-28.72h2.92l11.98,28.72Z"/>
  <path class="b" d="M693.71,371.91h-2.9l-12-28.72h2.92l11.98,28.72Z"/>
  <path class="b" d="M717.79,371.91h-2.9l-12-28.72h2.92l11.98,28.72Z"/>
  <path class="b" d="M741.89,371.91h-2.9l-12-28.72h2.92l11.98,28.72Z"/>
  <path class="b" d="M765.98,371.91h-2.9l-12-28.72h2.92l11.98,28.72Z"/>
  <path class="b" d="M790.07,371.91h-2.9l-12-28.72h2.92l11.98,28.72Z"/>
  <path class="b" d="M814.16,371.91h-2.9l-12-28.72h2.92l11.98,28.72Z"/>
  <path class="b" d="M838.25,371.91h-2.9l-12-28.72h2.92l11.98,28.72Z"/>
  <path class="b" d="M862.34,371.91h-2.9l-12-28.72h2.92l11.98,28.72Z"/>
  <path class="b" d="M886.43,371.91h-2.9l-12-28.72h2.92l11.98,28.72Z"/>
  <path class="b" d="M910.52,371.91h-2.9l-12-28.72h2.92l11.98,28.72Z"/>
  <path class="b" d="M934.65,343.2l-12.02,28.72h-2.88l11.96-28.72h2.94Z"/>
  <path class="b" d="M963.72,380.13h-24.09v-2.57h24.09v2.57Z"/>
  <path class="b" d="M987.81,380.13h-24.09v-2.57h24.09v2.57Z"/>
  <path class="b" d="M1011.9,380.13h-24.09v-2.57h24.09v2.57Z"/>
  <path class="b" d="M1030.97,371.91h-2.9l-12-28.72h2.92l11.98,28.72Z"/>
  <path class="b" d="M1055.1,343.2l-12.02,28.72h-2.88l11.96-28.72h2.94Z"/>
  <path class="b" d="M1079.15,371.91h-2.9l-12-28.72h2.92l11.98,28.72Z"/>
  <path class="b" d="M1103.24,371.91h-2.9l-12-28.72h2.92l11.98,28.72Z"/>
  <path class="b" d="M1127.33,371.91h-2.9l-12-28.72h2.92l11.98,28.72Z"/>
  <path class="b" d="M1156.44,380.13h-24.09v-2.57h24.09v2.57Z"/>
  <path class="b" d="M1180.54,380.13h-24.09v-2.57h24.09v2.57Z"/>
  <path class="b" d="M1204.63,380.13h-24.09v-2.57h24.09v2.57Z"/>
  <path class="b" d="M1228.72,380.13h-24.09v-2.57h24.09v2.57Z"/>
  <path class="b" d="M1252.81,380.13h-24.09v-2.57h24.09v2.57Z"/>
  <path class="b" d="M1271.88,371.91h-2.9l-12-28.72h2.92l11.98,28.72Z"/>
  <path class="b" d="M1296.01,343.2l-12.02,28.72h-2.88l11.96-28.72h2.94Z"/>
  <path class="b" d="M1320.06,371.91h-2.9l-12-28.72h2.92l11.98,28.72Z"/>
  <path class="b" d="M1344.15,371.91h-2.9l-12-28.72h2.92l11.98,28.72Z"/>
  <path class="b" d="M1368.24,371.91h-2.9l-12-28.72h2.92l11.98,28.72Z"/>
  <path class="b" d="M1397.35,380.13h-24.09v-2.57h24.09v2.57Z"/>
  <path class="b" d="M1416.42,371.91h-2.9l-12-28.72h2.92l11.98,28.72Z"/>
  <path class="b" d="M1440.55,343.2l-12.02,28.72h-2.88l11.96-28.72h2.94Z"/>
  <path class="b" d="M1464.64,343.2l-12.02,28.72h-2.88l11.96-28.72h2.94Z"/>
  <path class="b" d="M1488.73,343.2l-12.02,28.72h-2.88l11.96-28.72h2.94Z"/>
  <path class="b" d="M1512.78,371.91h-2.9l-12-28.72h2.92l11.98,28.72Z"/>
  <path class="b" d="M1536.88,371.91h-2.9l-12-28.72h2.92l11.98,28.72Z"/>
  <path class="b" d="M1560.97,371.91h-2.9l-12-28.72h2.92l11.98,28.72Z"/>
  <path class="b" d="M1585.06,371.91h-2.9l-12-28.72h2.92l11.98,28.72Z"/>
  <path class="b" d="M1609.15,371.91h-2.9l-12-28.72h2.92l11.98,28.72Z"/>
  <path class="b" d="M1633.24,371.91h-2.9l-12-28.72h2.92l11.98,28.72Z"/>
  <path class="b" d="M1657.33,371.91h-2.9l-12-28.72h2.92l11.98,28.72Z"/>
  <path class="b" d="M1681.42,371.91h-2.9l-12-28.72h2.92l11.98,28.72Z"/>
  <path class="b" d="M1705.51,371.91h-2.9l-12-28.72h2.92l11.98,28.72Z"/>
  <path class="b" d="M1729.64,343.2l-12.02,28.72h-2.88l11.96-28.72h2.94Z"/>
  <path class="b" d="M1758.71,380.13h-24.09v-2.57h24.09v2.57Z"/>
  <path class="b" d="M1782.8,380.13h-24.09v-2.57h24.09v2.57Z"/>
  <path class="b" d="M1806.89,380.13h-24.09v-2.57h24.09v2.57Z"/>
  <path class="b" d="M1830.98,380.13h-24.09v-2.57h24.09v2.57Z"/>
  <path class="b" d="M1855.07,380.13h-24.09v-2.57h24.09v2.57Z"/>
  <path class="b" d="M1879.16,380.13h-24.09v-2.57h24.09v2.57Z"/>
  <path class="b" d="M1903.25,380.13h-24.09v-2.57h24.09v2.57Z"/>
  <path class="b" d="M24.19,428.3H.1v-2.57h24.09v2.57Z"/>
  <path class="b" d="M48.28,428.3h-24.09v-2.57h24.09v2.57Z"/>
  <path class="b" d="M72.37,428.3h-24.09v-2.57h24.09v2.57Z"/>
  <path class="b" d="M96.46,428.3h-24.09v-2.57h24.09v2.57Z"/>
  <path class="b" d="M120.55,428.3h-24.09v-2.57h24.09v2.57Z"/>
  <path class="b" d="M144.64,428.3h-24.09v-2.57h24.09v2.57Z"/>
  <path class="b" d="M168.73,428.3h-24.09v-2.57h24.09v2.57Z"/>
  <path class="b" d="M192.82,428.3h-24.09v-2.57h24.09v2.57Z"/>
  <path class="b" d="M216.91,428.3h-24.09v-2.57h24.09v2.57Z"/>
  <path class="b" d="M241,428.3h-24.09v-2.57h24.09v2.57Z"/>
  <path class="b" d="M265.09,428.3h-24.09v-2.57h24.09v2.57Z"/>
  <path class="b" d="M289.18,428.3h-24.09v-2.57h24.09v2.57Z"/>
  <path class="b" d="M308.26,420.09h-2.9l-12-28.72h2.92l11.98,28.72Z"/>
  <path class="b" d="M332.39,391.37l-12.02,28.72h-2.88l11.96-28.72h2.94Z"/>
  <path class="b" d="M356.48,391.37l-12.02,28.72h-2.88l11.96-28.72h2.94Z"/>
  <path class="b" d="M380.57,391.37l-12.02,28.72h-2.88l11.96-28.72h2.94Z"/>
  <path class="b" d="M404.66,391.37l-12.02,28.72h-2.88l11.96-28.72h2.94Z"/>
  <path class="b" d="M428.75,391.37l-12.02,28.72h-2.88l11.96-28.72h2.94Z"/>
  <path class="b" d="M452.84,391.37l-12.02,28.72h-2.88l11.96-28.72h2.94Z"/>
  <path class="b" d="M476.93,391.37l-12.02,28.72h-2.88l11.96-28.72h2.94Z"/>
  <path class="b" d="M506,428.3h-24.09v-2.57h24.09v2.57Z"/>
  <path class="b" d="M530.09,428.3h-24.09v-2.57h24.09v2.57Z"/>
  <path class="b" d="M554.18,428.3h-24.09v-2.57h24.09v2.57Z"/>
  <path class="b" d="M578.27,428.3h-24.09v-2.57h24.09v2.57Z"/>
  <path class="b" d="M602.36,428.3h-24.09v-2.57h24.09v2.57Z"/>
  <path class="b" d="M626.45,428.3h-24.09v-2.57h24.09v2.57Z"/>
  <path class="b" d="M645.52,420.09h-2.9l-12-28.72h2.92l11.98,28.72Z"/>
  <path class="b" d="M669.65,391.37l-12.02,28.72h-2.88l11.96-28.72h2.94Z"/>
  <path class="b" d="M693.74,391.37l-12.02,28.72h-2.88l11.96-28.72h2.94Z"/>
  <path class="b" d="M717.83,391.37l-12.02,28.72h-2.88l11.96-28.72h2.94Z"/>
  <path class="b" d="M741.92,391.37l-12.02,28.72h-2.88l11.96-28.72h2.94Z"/>
  <path class="b" d="M766.02,391.37l-12.02,28.72h-2.88l11.96-28.72h2.94Z"/>
  <path class="b" d="M790.11,391.37l-12.02,28.72h-2.88l11.96-28.72h2.94Z"/>
  <path class="b" d="M814.2,391.37l-12.02,28.72h-2.88l11.96-28.72h2.94Z"/>
  <path class="b" d="M838.29,391.37l-12.02,28.72h-2.88l11.96-28.72h2.94Z"/>
  <path class="b" d="M862.38,391.37l-12.02,28.72h-2.88l11.96-28.72h2.94Z"/>
  <path class="b" d="M886.47,391.37l-12.02,28.72h-2.88l11.96-28.72h2.94Z"/>
  <path class="b" d="M910.56,391.37l-12.02,28.72h-2.88l11.96-28.72h2.94Z"/>
  <path class="b" d="M934.65,391.37l-12.02,28.72h-2.88l11.96-28.72h2.94Z"/>
  <path class="b" d="M963.72,428.3h-24.09v-2.57h24.09v2.57Z"/>
  <path class="b" d="M987.81,428.3h-24.09v-2.57h24.09v2.57Z"/>
  <path class="b" d="M1011.9,428.3h-24.09v-2.57h24.09v2.57Z"/>
  <path class="b" d="M1035.99,428.3h-24.09v-2.57h24.09v2.57Z"/>
  <path class="b" d="M1055.06,420.09h-2.9l-12-28.72h2.92l11.98,28.72Z"/>
  <path class="b" d="M1079.19,391.37l-12.02,28.72h-2.88l11.96-28.72h2.94Z"/>
  <path class="b" d="M1103.28,391.37l-12.02,28.72h-2.88l11.96-28.72h2.94Z"/>
  <path class="b" d="M1127.37,391.37l-12.02,28.72h-2.88l11.96-28.72h2.94Z"/>
  <path class="b" d="M1156.44,428.3h-24.09v-2.57h24.09v2.57Z"/>
  <path class="b" d="M1180.54,428.3h-24.09v-2.57h24.09v2.57Z"/>
  <path class="b" d="M1204.63,428.3h-24.09v-2.57h24.09v2.57Z"/>
  <path class="b" d="M1228.72,428.3h-24.09v-2.57h24.09v2.57Z"/>
  <path class="b" d="M1252.81,428.3h-24.09v-2.57h24.09v2.57Z"/>
  <path class="b" d="M1276.9,428.3h-24.09v-2.57h24.09v2.57Z"/>
  <path class="b" d="M1295.97,420.09h-2.9l-12-28.72h2.92l11.98,28.72Z"/>
  <path class="b" d="M1320.1,391.37l-12.02,28.72h-2.88l11.96-28.72h2.94Z"/>
  <path class="b" d="M1344.19,391.37l-12.02,28.72h-2.88l11.96-28.72h2.94Z"/>
  <path class="b" d="M1368.28,391.37l-12.02,28.72h-2.88l11.96-28.72h2.94Z"/>
  <path class="b" d="M1397.35,428.3h-24.09v-2.57h24.09v2.57Z"/>
  <path class="b" d="M1421.44,428.3h-24.09v-2.57h24.09v2.57Z"/>
  <path class="b" d="M1445.53,428.3h-24.09v-2.57h24.09v2.57Z"/>
  <path class="b" d="M1469.62,428.3h-24.09v-2.57h24.09v2.57Z"/>
  <path class="b" d="M1488.69,420.09h-2.9l-12-28.72h2.92l11.98,28.72Z"/>
  <path class="b" d="M1512.82,391.37l-12.02,28.72h-2.88l11.96-28.72h2.94Z"/>
  <path class="b" d="M1536.91,391.37l-12.02,28.72h-2.88l11.96-28.72h2.94Z"/>
  <path class="b" d="M1561,391.37l-12.02,28.72h-2.88l11.96-28.72h2.94Z"/>
  <path class="b" d="M1585.1,391.37l-12.02,28.72h-2.88l11.96-28.72h2.94Z"/>
  <path class="b" d="M1609.19,391.37l-12.02,28.72h-2.88l11.96-28.72h2.94Z"/>
  <path class="b" d="M1633.28,391.37l-12.02,28.72h-2.88l11.96-28.72h2.94Z"/>
  <path class="b" d="M1657.37,391.37l-12.02,28.72h-2.88l11.96-28.72h2.94Z"/>
  <path class="b" d="M1681.46,391.37l-12.02,28.72h-2.88l11.96-28.72h2.94Z"/>
  <path class="b" d="M1705.55,391.37l-12.02,28.72h-2.88l11.96-28.72h2.94Z"/>
  <path class="b" d="M1734.62,428.3h-24.09v-2.57h24.09v2.57Z"/>
  <path class="b" d="M1758.71,428.3h-24.09v-2.57h24.09v2.57Z"/>
  <path class="b" d="M1782.8,428.3h-24.09v-2.57h24.09v2.57Z"/>
  <path class="b" d="M1806.89,428.3h-24.09v-2.57h24.09v2.57Z"/>
  <path class="b" d="M1830.98,428.3h-24.09v-2.57h24.09v2.57Z"/>
  <path class="b" d="M1855.07,428.3h-24.09v-2.57h24.09v2.57Z"/>
  <path class="b" d="M1879.16,428.3h-24.09v-2.57h24.09v2.57Z"/>
</svg>